<svg width="23" height="23" viewBox="0 0 23 23" fill="none" xmlns="http://www.w3.org/2000/svg">
<g clip-path="url(#clip0_10_14)">
<path d="M16 8.33333H9V15.6667H16V8.33333ZM13.6667 13.2222H11.3333V10.7778H13.6667V13.2222ZM23 10.7778V8.33333H20.6667V5.88889C20.6667 4.54444 19.6167 3.44444 18.3333 3.44444H16V1H13.6667V3.44444H11.3333V1H9V3.44444H6.66667C5.38333 3.44444 4.33333 4.54444 4.33333 5.88889V8.33333H2V10.7778H4.33333V13.2222H2V15.6667H4.33333V18.1111C4.33333 19.4556 5.38333 20.5556 6.66667 20.5556H9V23H11.3333V20.5556H13.6667V23H16V20.5556H18.3333C19.6167 20.5556 20.6667 19.4556 20.6667 18.1111V15.6667H23V13.2222H20.6667V10.7778H23ZM18.3333 18.1111H6.66667V5.88889H18.3333V18.1111Z" fill="#007FFF"/>
</g>
<defs>
<clipPath id="clip0_10_14">
<rect width="22" height="22" fill="white" transform="translate(0.880005 0.5)"/>
</clipPath>
</defs>
</svg>
