<svg width="22" height="22" viewBox="0 0 22 22" fill="none" xmlns="http://www.w3.org/2000/svg">
<path d="M11.4597 9.65555C8.78389 8.93444 7.92338 8.18889 7.92338 7.02778C7.92338 5.69556 9.11395 4.76667 11.1061 4.76667C13.2043 4.76667 13.9823 5.80556 14.053 7.33333H16.6582C16.5756 5.23111 15.3379 3.3 12.8743 2.67667V0H9.33792V2.64C7.05108 3.15333 5.21218 4.69333 5.21218 7.05222C5.21218 9.87556 7.46365 11.2811 10.7525 12.1C13.6994 12.8333 14.2888 13.9089 14.2888 15.0456C14.2888 15.8889 13.7112 17.2333 11.1061 17.2333C8.6778 17.2333 7.72299 16.1089 7.59332 14.6667H5C5.14145 17.3433 7.07466 18.8467 9.33792 19.3478V22H12.8743V19.3722C15.1729 18.92 17 17.5389 17 15.0333C17 11.5622 14.1356 10.3767 11.4597 9.65555Z" fill="#007FFF"/>
</svg>
