<svg width="23" height="23" viewBox="0 0 23 23" fill="none" xmlns="http://www.w3.org/2000/svg">
<g clip-path="url(#clip0_6_4)">
<path d="M7.15 15.625H15.73V7.375H7.15V15.625ZM20.02 8.0625H22.165C22.5583 8.0625 22.88 7.75313 22.88 7.375C22.88 6.99687 22.5599 6.6875 22.165 6.6875H20.02V6C20.02 4.48105 18.7397 3.25 17.16 3.25H16.445V1.1875C16.445 0.807828 16.1233 0.5 15.73 0.5C15.3351 0.5 15.015 0.807828 15.015 1.1875V3.25H12.155V1.1875C12.155 0.807828 11.8333 0.5 11.44 0.5C11.0468 0.5 10.725 0.807828 10.725 1.1875V3.25H7.865V1.1875C7.865 0.807828 7.54325 0.5 7.15 0.5C6.75675 0.5 6.435 0.807828 6.435 1.1875V3.25H5.72C4.1403 3.25 2.86 4.48105 2.86 6V6.6875H0.715C0.320141 6.6875 0 6.99687 0 7.375C0 7.75313 0.320141 8.0625 0.715 8.0625H2.86V10.8125H0.715C0.320141 10.8125 0 11.1219 0 11.5C0 11.8781 0.320141 12.1875 0.715 12.1875H2.86V14.9375H0.715C0.320141 14.9375 0 15.2469 0 15.625C0 16.0031 0.320141 16.3125 0.715 16.3125H2.86V17C2.86 18.5189 4.1403 19.75 5.72 19.75H6.435V21.8125C6.435 22.1906 6.75675 22.5 7.15 22.5C7.54495 22.5 7.865 22.1922 7.865 21.8125V19.75H10.725V21.8125C10.725 22.1922 11.0451 22.5 11.44 22.5C11.8349 22.5 12.155 22.1922 12.155 21.8125V19.75H15.015V21.8125C15.015 22.1922 15.3351 22.5 15.73 22.5C16.1249 22.5 16.445 22.1922 16.445 21.8125V19.75H17.16C18.7397 19.75 20.02 18.5189 20.02 17V16.3125H22.165C22.5599 16.3125 22.88 16.0047 22.88 15.625C22.88 15.2453 22.5599 14.9375 22.165 14.9375H20.02V12.1875H22.165C22.5583 12.1875 22.88 11.8781 22.88 11.5C22.88 11.1219 22.5599 10.8125 22.165 10.8125H20.02V8.0625ZM17.16 16.3125C17.16 16.6922 16.8399 17 16.445 17H6.435C6.04175 17 5.72 16.6906 5.72 16.3125V6.6875C5.72 6.30937 6.04175 6 6.435 6H16.445C16.8383 6 17.16 6.30937 17.16 6.6875V16.3125Z" fill="#007FFF"/>
</g>
<defs>
<clipPath id="clip0_6_4">
<rect width="22.88" height="22" fill="white" transform="translate(0 0.5)"/>
</clipPath>
</defs>
</svg>
